<svg xmlns="http://www.w3.org/2000/svg" fill="none" viewBox="0 0 86 22" id="astroicon:wordmark" width="6em" height="3.5em"><path fill="currentColor" d="M6.829 21.686c3.113 0 5.449-1.108 6.407-2.994 0 .898.06 1.826.21 2.545h5.118c-.24-1.048-.359-2.485-.359-4.371v-4.61c0-4.372-2.574-6.437-8.293-6.437-5 0-8.352 2.065-8.741 5.448H6.5C6.68 9.8 7.907 8.992 9.912 8.992c1.976 0 3.084.808 3.084 2.485v.449l-5.419.479c-2.634.27-4.131.719-5.179 1.437C1.29 14.59.722 15.728.722 17.135c0 2.814 2.335 4.55 6.107 4.55Zm1.976-3.114c-1.737 0-2.784-.688-2.784-1.796 0-1.138.868-1.736 3.053-2.006l4.012-.419v.898c0 2.006-1.736 3.323-4.281 3.323ZM29.362 21.686c5.209 0 7.873-1.946 7.873-5.09 0-2.604-1.497-4.041-5.119-4.52l-4.52-.51c-1.288-.179-1.827-.508-1.827-1.227 0-.868.868-1.257 2.844-1.257 2.725 0 4.61.629 6.138 1.856l2.424-2.425C35.5 6.777 32.595 5.82 29.003 5.82c-5.06 0-7.874 1.796-7.874 4.82 0 2.634 1.736 4.101 5.329 4.58l4.071.48c1.617.209 2.096.508 2.096 1.286 0 .899-.898 1.378-2.994 1.378-3.113 0-5.209-.839-6.616-2.395l-2.754 2.275c1.826 2.275 4.94 3.443 9.1 3.443ZM41.462 9.65v6.318c0 3.712 2.096 5.598 6.586 5.598 1.377 0 2.455-.15 3.473-.45v-3.891c-.539.12-1.197.24-2.066.24-1.886 0-2.814-.839-2.814-2.605V9.65h4.91V6.269h-4.91V.789l-5.179 1.916v3.563h-3.353V9.65h3.353ZM58.987 6.268h-4.73v14.969h5.179v-5.599c0-1.616.359-3.083 1.347-4.011.778-.719 1.886-1.108 3.443-1.108.569 0 1.018.06 1.526.12v-4.7c-.329-.06-.568-.06-.987-.06-2.964 0-4.97 1.706-5.778 4.49V6.268ZM75.987 21.686c5.479 0 9.34-2.904 9.34-7.964 0-5.03-3.861-7.903-9.34-7.903-5.508 0-9.37 2.874-9.37 7.903 0 5.06 3.862 7.964 9.37 7.964Zm0-3.443c-2.515 0-4.101-1.617-4.101-4.52 0-2.905 1.586-4.461 4.101-4.461 2.485 0 4.072 1.556 4.072 4.46s-1.587 4.52-4.072 4.52Z"></path></svg>
